<?xml version="1.0"?>
<svg width="895.68" height="517.48" xmlns="http://www.w3.org/2000/svg" xmlns:svg="http://www.w3.org/2000/svg" xmlns:se="http://svg-edit.googlecode.com" xmlns:xlink="http://www.w3.org/1999/xlink" data-name="Layer 1">
 <defs>
  <linearGradient id="74471b12-b6be-488b-b2aa-2815e91483d9" x1="0" x2="1" y1="0.50001" y2="0.50001">
   <stop offset="0" stop-color="gray" stop-opacity="0.25"/>
   <stop offset="0.54" stop-color="gray" stop-opacity="0.12"/>
   <stop offset="1" stop-color="gray" stop-opacity="0.1"/>
  </linearGradient>
  <linearGradient gradientTransform="translate(1166.67 -399.94) rotate(90)" id="f5c756da-9879-448e-9194-9478f83d355f" x1="785.97" x2="785.97" xlink:href="#74471b12-b6be-488b-b2aa-2815e91483d9" y1="446.14" y2="321.91"/>
  <linearGradient gradientTransform="translate(1146.84 -172.9) rotate(90)" id="5c9be04e-db0f-4829-87c1-2cfa193e30b8" x1="660.92" x2="660.92" xlink:href="#74471b12-b6be-488b-b2aa-2815e91483d9" y1="518.19" y2="494.17"/>
  <linearGradient gradientTransform="translate(13.58 8.51)" id="b92f3a53-b4d2-4abd-916c-aeb632188996" x1="433.66" x2="433.66" xlink:href="#74471b12-b6be-488b-b2aa-2815e91483d9" y1="605.23" y2="235.23"/>
  <linearGradient gradientTransform="translate(-1.05 11.3)" id="44577794-7f8e-40ae-89fc-019e5bfac17e" x1="428.36" x2="428.36" xlink:href="#74471b12-b6be-488b-b2aa-2815e91483d9" y1="413.71" y2="291.46"/>
  <linearGradient gradientTransform="translate(28.38 37.45)" id="666bb7d3-84d0-4835-ad07-c313c2384f21" x1="295.22" x2="295.22" xlink:href="#74471b12-b6be-488b-b2aa-2815e91483d9" y1="484.61" y2="460.98"/>
  <linearGradient gradientTransform="matrix(1, 0, 0, 1, 0, 0)" id="59939605-05af-4a9a-9980-f700897f3f8b" x1="455.07" x2="455.07" xlink:href="#74471b12-b6be-488b-b2aa-2815e91483d9" y1="464.48" y2="10.48"/>
  <linearGradient gradientTransform="matrix(1, 0, 0, 1, 0, 0)" id="6c0ba2ee-2d81-48f4-b4cf-f21b525fcc13" x1="449.07" x2="449.07" xlink:href="#74471b12-b6be-488b-b2aa-2815e91483d9" y1="229.48" y2="79.48"/>
  <linearGradient gradientTransform="matrix(1, 0, 0, 1, 0, 0)" id="45b0c09d-2995-447e-8cb2-7f6b59b5e20c" x1="298.07" x2="298.07" xlink:href="#74471b12-b6be-488b-b2aa-2815e91483d9" y1="316.48" y2="287.48"/>
  <linearGradient gradientTransform="matrix(1, 0, 0, 1, 0, 0)" id="e5b0a96a-81f6-4370-afe3-5a7d6a35b55e" x1="457.07" x2="457.07" xlink:href="#74471b12-b6be-488b-b2aa-2815e91483d9" y1="517.48" y2="364.48"/>
  <linearGradient gradientTransform="matrix(1, 0, 0, 1, 0, 0)" id="a1850e5a-cf77-4889-926a-0125112ab273" x1="611.23" x2="611.23" xlink:href="#74471b12-b6be-488b-b2aa-2815e91483d9" y1="564.74" y2="464.74"/>
  <linearGradient gradientTransform="matrix(1, 0, 0, 1, 0, 0)" id="66998849-614e-4d8a-b9ff-f14bbc588ed8" x1="611.23" x2="611.23" xlink:href="#74471b12-b6be-488b-b2aa-2815e91483d9" y1="660.74" y2="602.74"/>
 </defs>
 <title>safe</title>
 <g class="layer">
  <title>Layer 1</title>
  <rect fill="#f5f5f5" height="470.41" id="svg_1" transform="translate(247.6 844.09) rotate(-81.36)" width="19.88" x="792.23" y="49.92"/>
  <rect fill="url(#74471b12-b6be-488b-b2aa-2815e91483d9)" height="490.29" id="svg_2" transform="translate(58.72 963.57) rotate(-81.36)" width="376" x="589.23" y="209.59"/>
  <rect fill="#f5f5f5" height="470.41" id="svg_3" transform="translate(47.16 969.52) rotate(-81.36)" width="342.87" x="603.48" y="229.23"/>
  <circle cx="580.99" cy="251.51" fill="#ff5252" id="svg_4" r="4.86" transform="translate(92.88 596.86) rotate(-81.36)"/>
  <circle cx="594.2" cy="253.52" fill="#ff0" id="svg_5" r="4.86" transform="translate(102.12 611.62) rotate(-81.36)"/>
  <circle cx="607.41" cy="255.53" fill="#69f0ae" id="svg_6" r="4.86" transform="translate(111.36 626.39) rotate(-81.36)"/>
  <rect fill="url(#f5c756da-9879-448e-9194-9478f83d355f)" height="422.38" id="svg_7" transform="translate(131.25 910.54) rotate(-81.36)" width="124.23" x="720.53" y="174.84"/>
  <rect fill="#0173b5" height="115.12" id="svg_8" transform="rotate(8.64 630.795 194)" width="413.27" x="424.160003" y="136.43999"/>
  <rect fill="url(#5c9be04e-db0f-4829-87c1-2cfa193e30b8)" height="28.16" id="svg_9" transform="translate(-90.24 856.82) rotate(-81.36)" width="24.02" x="628.65" y="473.94"/>
  <rect fill="#6c63ff" height="19.88" id="svg_10" transform="translate(-71.61 -282.05) rotate(8.64)" width="26.5" x="627.88" y="477.73"/>
  <rect fill="#ff5252" height="19.88" id="svg_11" transform="translate(-66.63 -280.9) rotate(8.64)" width="26.5" x="622.77" y="511.3"/>
  <rect fill="#ff9800" height="19.88" id="svg_12" transform="translate(-61.64 -279.75) rotate(8.64)" width="26.5" x="617.67" y="544.87"/>
  <rect fill="#6c63ff" height="11.59" id="svg_13" opacity="0.4" transform="translate(-66.07 -306.13) rotate(8.64)" width="213.67" x="696.41" y="506.51"/>
  <rect fill="#6c63ff" height="11.59" id="svg_14" opacity="0.4" transform="translate(-61.09 -304.98) rotate(8.64)" width="213.67" x="691.31" y="540.08"/>
  <rect fill="#6c63ff" height="11.59" id="svg_15" opacity="0.4" transform="translate(-56.1 -303.83) rotate(8.64)" width="213.67" x="686.21" y="573.65"/>
  <rect fill="#f5f5f5" height="19.56" id="svg_16" transform="translate(-199.95 -95.55) rotate(-12.6)" width="500.84" x="159.15" y="254.51"/>
  <rect fill="url(#b92f3a53-b4d2-4abd-916c-aeb632188996)" height="370" id="svg_17" transform="translate(-234.92 -83.38) rotate(-12.6)" width="522" x="186.23" y="243.74"/>
  <rect fill="#f5f5f5" height="337.4" id="svg_18" transform="translate(-237.01 -82.86) rotate(-12.6)" width="500.84" x="198.08" y="269.78"/>
  <ellipse cx="177.11" cy="316.25" fill="#ff5252" id="svg_19" rx="5.17" ry="4.78" transform="translate(-216.88 -145.01) rotate(-12.6)"/>
  <ellipse cx="191" cy="313.15" fill="#ff0" id="svg_20" rx="5.17" ry="4.78" transform="translate(-215.87 -142.05) rotate(-12.6)"/>
  <ellipse cx="204.88" cy="310.05" fill="#69f0ae" id="svg_21" rx="5.17" ry="4.78" transform="translate(-214.86 -139.1) rotate(-12.6)"/>
  <rect fill="url(#44577794-7f8e-40ae-89fc-019e5bfac17e)" height="122.25" id="svg_22" transform="translate(-221.25 -89.28) rotate(-12.6)" width="449.7" x="202.46" y="302.76"/>
  <rect fill="#0173b5" height="113.28" id="svg_23" transform="rotate(-12.6 275.53 172.02)" width="440" x="55.529997" y="115.379996"/>
  <rect fill="url(#666bb7d3-84d0-4835-ad07-c313c2384f21)" height="23.63" id="svg_24" transform="translate(-255.67 -108.38) rotate(-12.6)" width="29.98" x="308.61" y="498.42"/>
  <rect fill="#6c63ff" height="19.56" id="svg_25" transform="matrix(0.98, -0.22, 0.22, 0.98, -255.56, -108.32)" width="28.22" x="309.83" y="499.96"/>
  <rect fill="#ff5252" height="19.56" id="svg_26" transform="translate(-262.49 -105.94) rotate(-12.6)" width="28.22" x="317.12" y="532.57"/>
  <rect fill="#ff9800" height="19.56" id="svg_27" transform="matrix(0.98, -0.22, 0.22, 0.98, -269.43, -103.57)" width="28.22" x="324.41" y="565.18"/>
  <rect fill="#6c63ff" height="11.41" id="svg_28" opacity="0.4" transform="translate(-243.14 -72.07) rotate(-12.6)" width="227.49" x="380.57" y="465.95"/>
  <rect fill="#6c63ff" height="11.41" id="svg_29" opacity="0.4" transform="translate(-250.08 -69.69) rotate(-12.6)" width="227.49" x="387.86" y="498.56"/>
  <rect fill="#6c63ff" height="11.41" id="svg_30" opacity="0.4" transform="translate(-257.02 -67.32) rotate(-12.6)" width="227.49" x="395.15" y="531.17"/>
  <rect fill="#f5f5f5" height="24" id="svg_31" width="568" x="170.07" y="18.48"/>
  <rect fill="url(#59939605-05af-4a9a-9980-f700897f3f8b)" height="454" id="svg_32" width="592" x="159.07" y="10.48"/>
  <rect fill="#fff" height="414" id="svg_33" width="568" x="170.07" y="42.48"/>
  <circle cx="183.94" cy="30.48" fill="#ff5252" id="svg_34" r="5.87"/>
  <circle cx="200.07" cy="30.48" fill="#ff0" id="svg_35" r="5.87"/>
  <circle cx="216.2" cy="30.48" fill="#69f0ae" id="svg_36" r="5.87"/>
  <rect fill="url(#6c0ba2ee-2d81-48f4-b4cf-f21b525fcc13)" height="150" id="svg_37" width="510" x="194.07" y="79.48"/>
  <rect fill="#0173b5" height="139" id="svg_38" width="499" x="200.07" y="85.48"/>
  <rect fill="url(#45b0c09d-2995-447e-8cb2-7f6b59b5e20c)" height="29" id="svg_39" width="34" x="281.07" y="287.48"/>
  <rect fill="#6c63ff" height="24" id="svg_40" width="32" x="282.57" y="289.48"/>
  <rect fill="#ff5252" height="24" id="svg_41" width="32" x="282.57" y="330.48"/>
  <rect fill="#ff9800" height="24" id="svg_42" width="32" x="282.57" y="371.48"/>
  <rect fill="#6c63ff" height="14" id="svg_43" opacity="0.4" width="258" x="367.57" y="294.48"/>
  <rect fill="#6c63ff" height="14" id="svg_44" opacity="0.4" width="258" x="367.57" y="335.48"/>
  <rect fill="#6c63ff" height="14" id="svg_45" opacity="0.4" width="258" x="367.57" y="376.48"/>
  <rect fill="url(#e5b0a96a-81f6-4370-afe3-5a7d6a35b55e)" height="153" id="svg_46" width="186" x="364.07" y="364.48"/>
  <path d="m559.15,531.41a52.08,52.08 0 0 1 104.17,0l0,33.33l14.58,0l0,-33.33a66.67,66.67 0 1 0 -133.33,0l0,33.33l14.58,0l0,-33.33z" fill="url(#a1850e5a-cf77-4889-926a-0125112ab273)" id="svg_47" transform="translate(-152.16 -191.26)"/>
  <path d="m561.23,530.74a50,50 0 0 1 100,0l0,32l14,0l0,-32a64,64 0 0 0 -128,0l0,32l14,0l0,-32z" fill="#fff" id="svg_48" transform="translate(-152.16 -191.26)"/>
  <rect fill="#6c63ff" height="142" id="svg_49" width="174" x="372.07" y="369.48"/>
  <rect fill="#fff" height="142" id="svg_50" width="174" x="372.07" y="369.48"/>
  <rect fill="#04a2fe" height="86" id="svg_51" width="174" x="372.07" y="397.48"/>
  <path d="m624,615.5a12.76,12.76 0 1 0 -22,8.74l0,27.22a9.28,9.28 0 0 0 18.56,0l0,-27.22a12.7,12.7 0 0 0 3.44,-8.74z" fill="url(#66998849-614e-4d8a-b9ff-f14bbc588ed8)" id="svg_52" transform="translate(-152.16 -191.26)"/>
  <path d="m622.23,617.74a11,11 0 1 0 -19,7.53l0,23.47a8,8 0 1 0 16,0l0,-23.47a11,11 0 0 0 3,-7.53z" id="svg_53" opacity="0.2" transform="translate(-152.16 -191.26)"/>
 </g>
</svg>